<?xml version="1.0" encoding="UTF-8" standalone="no"?>
<!-- Created with Inkscape (http://www.inkscape.org/) -->

<svg
   xmlns:dc="http://purl.org/dc/elements/1.1/"
   xmlns:cc="http://creativecommons.org/ns#"
   xmlns:rdf="http://www.w3.org/1999/02/22-rdf-syntax-ns#"
   xmlns:svg="http://www.w3.org/2000/svg"
   xmlns="http://www.w3.org/2000/svg"
   xmlns:sodipodi="http://sodipodi.sourceforge.net/DTD/sodipodi-0.dtd"
   xmlns:inkscape="http://www.inkscape.org/namespaces/inkscape"
   id="svg2"
   version="1.1"
   inkscape:version="0.91 r13725"
   width="45"
   height="38"
   viewBox="0 0 390 376"
   sodipodi:docname="magnifying_glass.2.svg">
  <metadata
     id="metadata8">
    <rdf:RDF>
      <cc:Work
         rdf:about="">
        <dc:format>image/svg+xml</dc:format>
        <dc:type
           rdf:resource="http://purl.org/dc/dcmitype/StillImage" />
        <dc:title></dc:title>
      </cc:Work>
    </rdf:RDF>
  </metadata>
  <defs
     id="defs6" />
  <sodipodi:namedview
     pagecolor="#cccccc"
     bordercolor="#666666"
     borderopacity="1"
     objecttolerance="10"
     gridtolerance="10"
     guidetolerance="10"
     inkscape:pageopacity="0"
     inkscape:pageshadow="2"
     inkscape:window-width="640"
     inkscape:window-height="480"
     id="namedview4"
     showgrid="false"
     inkscape:zoom="0.62933333"
     inkscape:cx="187.5"
     inkscape:cy="187.5"
     inkscape:window-x="20"
     inkscape:window-y="43"
     inkscape:window-maximized="0"
     inkscape:current-layer="svg2" />
  <path
     style="fill:#000000"
     d="m 23.140885,338.84683 c -7.67028,-8.74674 -13.9459699,-16.30284 -13.9459699,-16.79132 0,-0.48847 2.5965799,-3.01584 5.7701799,-5.61636 l 5.77018,-4.72824 3.1313,3.70705 c 1.72221,2.03886 5.17262,5.95704 7.66758,8.70704 2.49495,2.75 7.57244,8.54737 11.28331,12.88305 l 6.74704,7.88305 -4.81348,4.92945 c -2.64741,2.7112 -5.45489,4.92945 -6.23883,4.92945 -0.78394,0 -7.70103,-7.15643 -15.37131,-15.90317 z m 22.30403,-8.40399 c -3.72926,-2.03715 -8.347,-8.02693 -9.38904,-12.17874 -0.41228,-1.64268 -0.19194,-4.45346 0.48966,-6.24619 1.18723,-3.12267 112.282535,-98.72669 118.739665,-102.18244 5.93129,-3.17432 14.45877,1.15369 18.75697,9.51985 2.4395,4.74832 1.66625,10.07462 -2.03476,14.01588 -3.72045,3.96196 -108.939505,93.23376 -114.028125,96.74575 -3.68659,2.54435 -8.25572,2.66315 -12.53437,0.32589 z M 251.3622,231.52059 c -11.74795,-2.12394 -26.23697,-7.57294 -37.05168,-13.93433 -10.15854,-5.97542 -26.346,-21.10385 -32.88614,-30.73462 -11.40556,-16.79544 -18.44663,-38.82967 -18.44663,-57.72664 0,-18.89698 7.04107,-40.931193 18.44663,-57.726633 6.54014,-9.63078 22.72761,-24.759206 32.88614,-30.734622 35.50968,-20.88738 79.2591,-20.88738 114.76878,0 10.15853,5.975416 26.346,21.103842 32.88614,30.734622 11.40556,16.79544 18.44663,38.829653 18.44663,57.726633 0,18.89697 -7.04107,40.9312 -18.44663,57.72664 -6.54014,9.63077 -22.7276,24.7592 -32.88614,30.73462 -23.29449,13.7022 -51.26349,18.71691 -77.7171,13.93433 z m 42.20771,-11.14624 c 17.65675,-4.53226 36.09014,-14.28252 47.42075,-25.08304 14.0018,-13.34672 24.85262,-34.84756 28.25963,-55.99622 2.89656,-17.98023 -3.11583,-41.758803 -15.26394,-60.367853 -17.30828,-26.51361 -49.33848,-43.410056 -82.29144,-43.410056 -19.04305,0 -34.17639,4.380554 -52.80679,15.285666 -23.78664,13.92327 -39.98732,38.59689 -44.74859,68.152073 -4.83152,29.99136 13.22949,68.2853 40.56689,86.01208 25.23499,16.36349 53.57138,21.89949 78.86349,15.40735 z m -115.04215,-3.44211 c -6.73795,-7.73149 -13.40103,-15.34544 -14.80685,-16.9199 l -2.55604,-2.86267 5.57751,-4.89653 c 3.06764,-2.6931 5.92054,-4.92053 6.33979,-4.94984 1.2983,-0.0908 27.98774,31.24967 27.98774,32.86501 0,0.83795 -2.31555,3.61552 -5.14568,6.17235 l -5.14567,4.64882 -12.2508,-14.05724 z"
     id="path3338"
     inkscape:connector-curvature="0" />
</svg>
